<svg width="1170" height="1363" viewBox="0 0 1170 1363" fill="none" xmlns="http://www.w3.org/2000/svg">
<path d="M1026.97 1083.56L539.66 1362.02V1042.95L754.308 926.926L1026.97 1083.56Z" fill="#00B0E5"/>
<path d="M1034.35 842.135L549.54 559.345L825.864 399.809L1033.67 527.687L1034.35 842.135Z" fill="#69CFEF"/>
<path d="M754.351 1240.87L756.85 679.613L1033.17 839.149L1026.33 1083.05L754.351 1240.87Z" fill="#00B0E5"/>
<path d="M758.282 774.468V680.332L1009.31 828.26L758.282 774.468Z" fill="black" fill-opacity="0.1"/>
<path d="M143.03 278.462L630.339 0V319.071L415.691 435.097L143.03 278.462Z" fill="#00B0E5"/>
<path d="M135.65 519.888L620.46 802.679L344.136 962.215L136.33 834.337L135.65 519.888Z" fill="#69CFEF"/>
<path d="M415.649 121.157L413.15 682.41L136.826 522.875L143.668 278.971L415.649 121.157Z" fill="#00B0E5"/>
<path d="M411.718 587.556V681.692L160.688 533.764L411.718 587.556Z" fill="black" fill-opacity="0.1"/>
</svg>
